# xmcd
#
# Track frame offsets:
# 150
# 12684
# 22419
# 34056
# 48187
# 61307
# 75507
# 88711
# 99607
# 114941
# 125867
# 135956
#
# Disc length: 2011 seconds
#
#
# Revision: 0
# Processed by: cddbd v1.5.2PL0 Copyright (c) Steve Scherf et al.
# Submitted via: FreeRIP 2.945 
#
DISCID=9c07d90c
DTITLE=Poeta e Trovador - Amigo
DYEAR=1979
DGENRE=Sertanejo
TTITLE0=Amigo
TTITLE1=Carro de Boi
TTITLE2=Solidão
TTITLE3=Não Censure Aquela Mulher
TTITLE4=Meu Sofrimento
TTITLE5=Distante de Alguem
TTITLE6=Homem da Madrugada
TTITLE7=Peito Magoado
TTITLE8=Trapo de Amor
TTITLE9=Meu Bem Volte Prá Mim
TTITLE10=Caminho Errado
TTITLE11=Rancheira Triste
EXTD=
EXTT0=José Bettio e Laurentino
EXTT1=Laurentino e José Homero
EXTT2=Antonio Mendes, Lourenço Pitter e  Cristiano Araujo
EXTT3=Noel Fernades e Sabino
EXTT4=Antonio Mendes e Jonas Júnior
EXTT5=Antonio Mendes e Cláudio Balestro
EXTT6=Laurentino e Osvaldo Bettio
EXTT7=José Bettio e Serafim Costa Almeida
EXTT8=Laureano Cruz e Teixeira
EXTT9=Antonio Mendes e Daniel
EXTT10=Laurentino, Lourenço Pitter e Arlindo Moniz
EXTT11=Noel Fernandes e Bakekê
PLAYORDER=
